<?xml version="1.0" encoding="UTF-8"?>
<svg width="227px" height="151px" preserveAspectRatio="none slice" viewBox="0 0 227 151" version="1.1" xmlns="http://www.w3.org/2000/svg" xmlns:xlink="http://www.w3.org/1999/xlink">
    <g id="Symbols" stroke="none" stroke-width="1" fill="none" fill-rule="evenodd">
        <g fill="#FFFFFF">
            <g>
                <path d="M67.108,6.0791 C67.512,5.6791 67.892,5.5181 68.219,5.5181 C68.805,5.5181 69.217,6.0401 69.198,6.6771 C69.18,7.0551 69.017,7.4701 68.653,7.8341 C54.09,25.9391 43.499,47.0981 43.499,76.4531 C43.499,105.7831 54.09,126.5361 68.653,144.6321 C69.017,144.9971 69.18,145.4191 69.198,145.7901 C69.217,146.4191 68.805,146.9501 68.219,146.9501 C67.892,146.9501 67.512,146.7881 67.108,146.3861 L5.072,86.3911 C1.976,83.7381 0,80.6431 0,76.2391 C0,71.8161 1.976,68.7291 5.072,66.0971 L67.108,6.0791" id="Fill-1"></path>
                <g transform="translate(81.000000, 0.460000)">
                    <path d="M33.8062,0.5395 C9.5162,0.5395 0.0212,34.9635 0.0212,75.9935 C0.0212,117.0335 9.5162,150.9995 33.8062,150.9995 C48.3802,150.9995 60.8042,142.4625 60.8472,135.4475 C60.8502,133.9145 60.2612,132.4415 58.9712,131.1565 C52.0672,124.4825 49.3632,117.8085 49.3372,111.9255 C49.2982,100.6875 59.0502,92.3125 68.0342,92.3125 C80.3932,92.3125 87.6802,102.0285 87.6802,114.6035 C87.6802,126.5155 82.5932,136.4495 77.0752,144.3905 C76.8612,144.7225 76.7642,145.0765 76.7642,145.3965 C76.7712,146.0235 77.1322,146.5335 77.6822,146.5335 C78.0182,146.5335 78.4102,146.3555 78.8352,145.9255 L140.8892,85.9305 C143.9872,83.2785 145.9652,80.1835 145.9652,75.7795 C145.9652,71.3565 143.9872,68.2685 140.8892,65.6365 L78.8352,5.6195 C78.4102,5.1945 78.0182,5.0165 77.6822,5.0165 C77.1282,5.0165 76.7712,5.5305 76.7642,6.1555 C76.7642,6.4775 76.8612,6.8345 77.0752,7.1675 C82.5932,15.0985 87.6802,25.0445 87.6802,36.9475 C87.6802,49.5135 80.3932,59.2395 68.0342,59.2395 C59.0502,59.2395 49.2982,50.8705 49.3372,39.6285 C49.3632,33.7405 52.0672,27.0675 58.9712,20.4005 C60.2612,19.1025 60.8502,17.6405 60.8472,16.1075 C60.8042,9.0825 48.3802,0.5395 33.8062,0.5395" id="Fill-3"></path>
                </g>
            </g>
        </g>
    </g>
</svg>