<?xml version="1.0" encoding="utf-8"?>
<!-- Generator: Adobe Illustrator 26.3.1, SVG Export Plug-In . SVG Version: 6.00 Build 0)  -->
<svg version="1.1" id="Calque_1" xmlns="http://www.w3.org/2000/svg" xmlns:xlink="http://www.w3.org/1999/xlink" x="0px" y="0px"
	 viewBox="0 0 154.4 188.3" style="enable-background:new 0 0 154.4 188.3;" xml:space="preserve">
<style type="text/css">
	.st0{fill-rule:evenodd;clip-rule:evenodd;fill:#C20016;}
	.st1{fill-rule:evenodd;clip-rule:evenodd;fill:#254F9B;}
</style>
<g id="Symbols">
	<g id="Navigation_x2F_Roll_x2F_Menu-N2" transform="translate(-163.000000, -27.000000)">
		<g id="HEADER_x2F_Transparent_x2F_ss-Menu">
			<g>
				<g id="Logotype" transform="translate(163.000000, 27.000000)">
					<g id="Group-6">
						<path id="Fill-1" class="st0" d="M45.7,3.3C46,3,46.2,2.9,46.5,2.9c0.4,0,0.7,0.3,0.7,0.8c0,0.3-0.1,0.5-0.4,0.8
							c-9.9,12.1-17.1,26.2-17.1,45.7s7.2,33.4,17.1,45.4c0.2,0.2,0.4,0.5,0.4,0.8c0,0.4-0.3,0.8-0.7,0.8c-0.2,0-0.5-0.1-0.8-0.4
							l-42.2-40C1.3,55,0,52.9,0,50s1.3-5,3.5-6.8L45.7,3.3"/>
						<g id="Group-5" transform="translate(21.766520, 0.121053)">
							<path id="Fill-3" class="st1" d="M56.3-0.2c-16.5,0-23,22.9-23,50.3c0,27.3,6.5,50,23,50c9.9,0,18.4-5.7,18.4-10.4
								c0-1-0.4-2-1.3-2.9c-4.7-4.4-6.5-8.9-6.6-12.8c0-7.5,6.6-13.1,12.7-13.1C88,60.9,93,67.4,93,75.7c0,7.9-3.5,14.6-7.2,19.8
								c-0.1,0.2-0.2,0.5-0.2,0.7c0,0.4,0.3,0.8,0.6,0.8c0.2,0,0.5-0.1,0.8-0.4l42.2-40c2.1-1.8,3.5-3.8,3.5-6.8
								c0-2.9-1.3-5-3.5-6.8L87,3.1c-0.3-0.3-0.6-0.4-0.8-0.4c-0.4,0-0.6,0.3-0.6,0.8c0,0.2,0.1,0.5,0.2,0.7C89.5,9.5,93,16.1,93,24
								c0,8.4-5,14.9-13.4,14.9c-6.1,0-12.7-5.6-12.7-13.1c0-3.9,1.9-8.4,6.6-12.8c0.9-0.9,1.3-1.8,1.3-2.9
								C74.7,5.4,66.2-0.2,56.3-0.2"/>
						</g>
					</g>
				</g>
			</g>
		</g>
	</g>
</g>
<g>
	<path d="M29.4,141.5h4.3c3.4,0,5.6,1.1,5.6,4.4c0,3.2-2.3,4.6-5.5,4.6h-2.5v6h-1.9V141.5z M33.5,149c2.6,0,3.9-1,3.9-3.1
		c0-2.2-1.3-2.9-4-2.9h-2.1v6H33.5z"/>
	<path d="M43.4,141.5h4.7c3.1,0,5.3,1.1,5.3,4.2c0,3-2.2,4.4-5.3,4.4h-2.8v6.3h-1.9V141.5z M47.9,148.6c2.3,0,3.6-0.9,3.6-2.9
		c0-2-1.3-2.7-3.6-2.7h-2.5v5.6H47.9z M47.8,149.6l1.5-1l4.6,7.9h-2.2L47.8,149.6z"/>
	<path d="M57.6,141.5h8.7v1.6h-6.7v4.7h5.7v1.6h-5.7v5.5h7v1.6h-8.9V141.5z"/>
	<path d="M70.8,141.5h2.3l2.9,8c0.4,1,0.7,2.1,1.1,3.1h0.1c0.4-1,0.7-2.1,1-3.1l2.8-8h2.3v15h-1.8v-8.3c0-1.3,0.1-3.1,0.2-4.4h-0.1
		l-1.2,3.4l-2.8,7.8h-1.3l-2.8-7.8l-1.2-3.4h-0.1c0.1,1.3,0.2,3.1,0.2,4.4v8.3h-1.7V141.5z"/>
	<path d="M88.6,141.5h1.9v15h-1.9V141.5z"/>
	<path d="M95.7,150.3v-8.8h1.9v8.9c0,3.6,1.5,4.7,3.5,4.7c2,0,3.6-1.1,3.6-4.7v-8.9h1.8v8.8c0,4.8-2.3,6.5-5.4,6.5
		C98,156.8,95.7,155.1,95.7,150.3z"/>
	<path d="M111.6,141.5h2.3l2.9,8c0.4,1,0.7,2.1,1.1,3.1h0.1c0.4-1,0.7-2.1,1-3.1l2.8-8h2.3v15h-1.8v-8.3c0-1.3,0.1-3.1,0.2-4.4h-0.1
		l-1.2,3.4l-2.8,7.8h-1.3l-2.8-7.8l-1.2-3.4h-0.1c0.1,1.3,0.2,3.1,0.2,4.4v8.3h-1.7V141.5z"/>
</g>
<g>
	<path d="M30.9,172.2h4.3c3.4,0,5.6,1.1,5.6,4.4c0,3.2-2.3,4.6-5.5,4.6h-2.5v6h-1.9V172.2z M35,179.7c2.6,0,3.9-1,3.9-3.1
		c0-2.2-1.3-2.9-4-2.9h-2.1v6H35z"/>
	<path d="M46.9,172.2h2.2l5.1,15h-2l-2.6-8.4c-0.5-1.7-1-3.3-1.5-5.1h-0.1c-0.5,1.7-0.9,3.4-1.5,5.1l-2.6,8.4h-1.9L46.9,172.2z
		 M44.5,181.1h6.9v1.5h-6.9V181.1z"/>
	<path d="M57.3,172.2H62c3.1,0,5.3,1.1,5.3,4.2c0,3-2.2,4.4-5.3,4.4h-2.8v6.3h-1.9V172.2z M61.8,179.3c2.3,0,3.6-0.9,3.6-2.9
		c0-2-1.3-2.7-3.6-2.7h-2.5v5.6H61.8z M61.7,180.3l1.5-1l4.6,7.9h-2.2L61.7,180.3z"/>
	<path d="M74.3,173.8h-4.5v-1.6h11v1.6h-4.5v13.4h-1.9V173.8z"/>
	<path d="M84.6,172.2h2l5.4,9.4l1.6,3.1h0.1c-0.1-1.5-0.2-3.2-0.2-4.8v-7.8h1.8v15h-2l-5.4-9.4l-1.6-3.1h-0.1
		c0.1,1.5,0.2,3.1,0.2,4.7v7.9h-1.8V172.2z"/>
	<path d="M100.5,172.2h8.7v1.6h-6.7v4.7h5.7v1.6h-5.7v5.5h7v1.6h-8.9V172.2z"/>
	<path d="M113.7,172.2h4.7c3.1,0,5.3,1.1,5.3,4.2c0,3-2.2,4.4-5.3,4.4h-2.8v6.3h-1.9V172.2z M118.1,179.3c2.3,0,3.6-0.9,3.6-2.9
		c0-2-1.3-2.7-3.6-2.7h-2.5v5.6H118.1z M118,180.3l1.5-1l4.6,7.9h-2.2L118,180.3z"/>
</g>
</svg>
